<?xml version="1.0" encoding="UTF-8" standalone="no"?>
<!DOCTYPE svg PUBLIC "-//W3C//DTD SVG 1.1//EN" "http://www.w3.org/Graphics/SVG/1.1/DTD/svg11.dtd">
<svg width="100%" height="100%" viewBox="0 0 726 726" version="1.1" xmlns="http://www.w3.org/2000/svg" xmlns:xlink="http://www.w3.org/1999/xlink" xml:space="preserve" xmlns:serif="http://www.serif.com/" style="fill-rule:evenodd;clip-rule:evenodd;stroke-linejoin:round;stroke-miterlimit:2;">
    <g transform="matrix(1,0,0,1,-87.0684,-87.0753)">
        <g transform="matrix(1,0,0,1,0.354195,0)">
            <rect x="86.714" y="87.075" width="62.952" height="62.952" style="fill:rgb(34,135,255);"/>
        </g>
        <g transform="matrix(1,0,0,1,0.354195,662.895)">
            <rect x="86.714" y="87.075" width="62.952" height="62.952" style="fill:rgb(34,135,255);"/>
        </g>
        <g transform="matrix(1,0,0,1,663.264,662.895)">
            <rect x="86.714" y="87.075" width="62.952" height="62.952" style="fill:rgb(34,135,255);"/>
        </g>
        <g transform="matrix(1,0,0,1,663.264,0)">
            <rect x="86.714" y="87.075" width="62.952" height="62.952" style="fill:rgb(34,135,255);"/>
        </g>
        <g id="Top-circles" serif:id="Top circles">
            <g transform="matrix(1.26245,0,0,1.26245,-128.168,-201.85)">
                <circle cx="269.051" cy="253.792" r="24.932" style="fill:rgb(255,143,34);"/>
            </g>
            <g transform="matrix(1.26245,0,0,1.26245,348.838,-201.85)">
                <circle cx="269.051" cy="253.792" r="24.932" style="fill:rgb(255,143,34);"/>
            </g>
            <g transform="matrix(1.26245,0,0,1.26245,269.337,-201.85)">
                <circle cx="269.051" cy="253.792" r="24.932" style="fill:rgb(255,143,34);"/>
            </g>
            <g transform="matrix(1.26245,0,0,1.26245,189.836,-201.85)">
                <circle cx="269.051" cy="253.792" r="24.932" style="fill:rgb(255,143,34);"/>
            </g>
            <g transform="matrix(1.26245,0,0,1.26245,110.335,-201.85)">
                <circle cx="269.051" cy="253.792" r="24.932" style="fill:rgb(255,143,34);"/>
            </g>
            <g transform="matrix(1.26245,0,0,1.26245,-48.6667,-201.85)">
                <circle cx="269.051" cy="253.792" r="24.932" style="fill:rgb(255,143,34);"/>
            </g>
            <g transform="matrix(1.26245,0,0,1.26245,30.8342,-201.85)">
                <circle cx="269.051" cy="253.792" r="24.932" style="fill:rgb(255,143,34);"/>
            </g>
        </g>
        <g id="Bottom-circles" serif:id="Bottom circles">
            <g transform="matrix(1.26245,0,0,1.26245,-128.168,461.045)">
                <circle cx="269.051" cy="253.792" r="24.932" style="fill:rgb(255,143,34);"/>
            </g>
            <g transform="matrix(1.26245,0,0,1.26245,348.838,461.045)">
                <circle cx="269.051" cy="253.792" r="24.932" style="fill:rgb(255,143,34);"/>
            </g>
            <g transform="matrix(1.26245,0,0,1.26245,269.337,461.045)">
                <circle cx="269.051" cy="253.792" r="24.932" style="fill:rgb(255,143,34);"/>
            </g>
            <g transform="matrix(1.26245,0,0,1.26245,189.836,461.045)">
                <circle cx="269.051" cy="253.792" r="24.932" style="fill:rgb(255,143,34);"/>
            </g>
            <g transform="matrix(1.26245,0,0,1.26245,110.335,461.045)">
                <circle cx="269.051" cy="253.792" r="24.932" style="fill:rgb(255,143,34);"/>
            </g>
            <g transform="matrix(1.26245,0,0,1.26245,-48.6667,461.045)">
                <circle cx="269.051" cy="253.792" r="24.932" style="fill:rgb(255,143,34);"/>
            </g>
            <g transform="matrix(1.26245,0,0,1.26245,30.8342,461.045)">
                <circle cx="269.051" cy="253.792" r="24.932" style="fill:rgb(255,143,34);"/>
            </g>
        </g>
        <g id="Right-circles" serif:id="Right circles">
            <g transform="matrix(7.7303e-17,-1.26245,1.26245,7.7303e-17,461.053,1028.17)">
                <circle cx="269.051" cy="253.792" r="24.932" style="fill:rgb(255,143,34);"/>
            </g>
            <g transform="matrix(7.7303e-17,-1.26245,1.26245,7.7303e-17,461.053,551.162)">
                <circle cx="269.051" cy="253.792" r="24.932" style="fill:rgb(255,143,34);"/>
            </g>
            <g transform="matrix(7.7303e-17,-1.26245,1.26245,7.7303e-17,461.053,630.663)">
                <circle cx="269.051" cy="253.792" r="24.932" style="fill:rgb(255,143,34);"/>
            </g>
            <g transform="matrix(7.7303e-17,-1.26245,1.26245,7.7303e-17,461.053,710.164)">
                <circle cx="269.051" cy="253.792" r="24.932" style="fill:rgb(255,143,34);"/>
            </g>
            <g transform="matrix(7.7303e-17,-1.26245,1.26245,7.7303e-17,461.053,789.665)">
                <circle cx="269.051" cy="253.792" r="24.932" style="fill:rgb(255,143,34);"/>
            </g>
            <g transform="matrix(7.7303e-17,-1.26245,1.26245,7.7303e-17,461.053,948.667)">
                <circle cx="269.051" cy="253.792" r="24.932" style="fill:rgb(255,143,34);"/>
            </g>
            <g transform="matrix(7.7303e-17,-1.26245,1.26245,7.7303e-17,461.053,869.166)">
                <circle cx="269.051" cy="253.792" r="24.932" style="fill:rgb(255,143,34);"/>
            </g>
        </g>
        <g id="Left-circles" serif:id="Left circles">
            <g transform="matrix(7.7303e-17,-1.26245,1.26245,7.7303e-17,-201.856,1028.17)">
                <circle cx="269.051" cy="253.792" r="24.932" style="fill:rgb(255,143,34);"/>
            </g>
            <g transform="matrix(7.7303e-17,-1.26245,1.26245,7.7303e-17,-201.856,551.162)">
                <circle cx="269.051" cy="253.792" r="24.932" style="fill:rgb(255,143,34);"/>
            </g>
            <g transform="matrix(7.7303e-17,-1.26245,1.26245,7.7303e-17,-201.856,630.663)">
                <circle cx="269.051" cy="253.792" r="24.932" style="fill:rgb(255,143,34);"/>
            </g>
            <g transform="matrix(7.7303e-17,-1.26245,1.26245,7.7303e-17,-201.856,710.164)">
                <circle cx="269.051" cy="253.792" r="24.932" style="fill:rgb(255,143,34);"/>
            </g>
            <g transform="matrix(7.7303e-17,-1.26245,1.26245,7.7303e-17,-201.856,789.665)">
                <circle cx="269.051" cy="253.792" r="24.932" style="fill:rgb(255,143,34);"/>
            </g>
            <g transform="matrix(7.7303e-17,-1.26245,1.26245,7.7303e-17,-201.856,948.667)">
                <circle cx="269.051" cy="253.792" r="24.932" style="fill:rgb(255,143,34);"/>
            </g>
            <g transform="matrix(7.7303e-17,-1.26245,1.26245,7.7303e-17,-201.856,869.166)">
                <circle cx="269.051" cy="253.792" r="24.932" style="fill:rgb(255,143,34);"/>
            </g>
        </g>
        <path d="M554.704,688.733C554.704,688.733 557.377,697.896 554.685,705.689C551.609,714.594 542.502,719.202 525.555,718.73L525.555,734.974L735.009,734.974L735.009,721.154C735.009,721.154 677.102,717.839 672.16,703.471C669.406,695.466 667.346,686.621 667.346,686.621C623.113,514.184 589.506,339.622 556.071,165.026L450.029,165.026L319.105,524.829L319.19,524.838L314.527,537.94C314.527,537.94 282.74,632.078 253.81,683.769C239.033,710.171 171.788,721.501 164.997,721.519L165.23,734.974L360.269,734.974C360.269,734.974 360.268,721.338 360.268,718.73C360.268,718.433 280.22,715.226 285.358,684.105C287.187,673.023 331.915,557.164 339.378,537.94L526.256,537.94L554.704,688.733ZM164.997,721.519C164.64,721.52 164.451,721.489 164.444,721.428C164.438,721.367 164.614,721.276 164.991,721.154L164.997,721.519ZM459.777,185.557L347.641,513.761L521.695,513.761L459.777,185.557Z" style="fill:rgb(147,13,242);"/>
    </g>
</svg>
