<?xml version="1.0" encoding="UTF-8" standalone="no"?>
<!DOCTYPE svg PUBLIC "-//W3C//DTD SVG 1.1//EN" "http://www.w3.org/Graphics/SVG/1.1/DTD/svg11.dtd">
<svg width="100%" height="100%" viewBox="0 0 900 900" version="1.1" xmlns="http://www.w3.org/2000/svg" xmlns:xlink="http://www.w3.org/1999/xlink" xml:space="preserve" xmlns:serif="http://www.serif.com/" style="fill-rule:evenodd;clip-rule:evenodd;stroke-linejoin:round;stroke-miterlimit:2;">
    <g transform="matrix(1,0,0,1,0.354195,0)">
        <rect x="86.714" y="87.075" width="62.952" height="62.952" style="fill:rgb(34,135,255);"/>
    </g>
    <g transform="matrix(1,0,0,1,0.354195,662.895)">
        <rect x="86.714" y="87.075" width="62.952" height="62.952" style="fill:rgb(34,135,255);"/>
    </g>
    <g transform="matrix(1,0,0,1,663.264,662.895)">
        <rect x="86.714" y="87.075" width="62.952" height="62.952" style="fill:rgb(34,135,255);"/>
    </g>
    <g transform="matrix(1,0,0,1,663.264,0)">
        <rect x="86.714" y="87.075" width="62.952" height="62.952" style="fill:rgb(34,135,255);"/>
    </g>
    <g id="Top-circles" serif:id="Top circles">
        <g transform="matrix(1.26245,0,0,1.26245,-128.168,-201.85)">
            <circle cx="269.051" cy="253.792" r="24.932" style="fill:rgb(255,143,34);"/>
        </g>
        <g transform="matrix(1.26245,0,0,1.26245,348.838,-201.85)">
            <circle cx="269.051" cy="253.792" r="24.932" style="fill:rgb(255,143,34);"/>
        </g>
        <g transform="matrix(1.26245,0,0,1.26245,269.337,-201.85)">
            <circle cx="269.051" cy="253.792" r="24.932" style="fill:rgb(255,143,34);"/>
        </g>
        <g transform="matrix(1.26245,0,0,1.26245,189.836,-201.85)">
            <circle cx="269.051" cy="253.792" r="24.932" style="fill:rgb(255,143,34);"/>
        </g>
        <g transform="matrix(1.26245,0,0,1.26245,110.335,-201.85)">
            <circle cx="269.051" cy="253.792" r="24.932" style="fill:rgb(255,143,34);"/>
        </g>
        <g transform="matrix(1.26245,0,0,1.26245,-48.6667,-201.85)">
            <circle cx="269.051" cy="253.792" r="24.932" style="fill:rgb(255,143,34);"/>
        </g>
        <g transform="matrix(1.26245,0,0,1.26245,30.8342,-201.85)">
            <circle cx="269.051" cy="253.792" r="24.932" style="fill:rgb(255,143,34);"/>
        </g>
    </g>
    <g id="Bottom-circles" serif:id="Bottom circles">
        <g transform="matrix(1.26245,0,0,1.26245,-128.168,461.045)">
            <circle cx="269.051" cy="253.792" r="24.932" style="fill:rgb(255,143,34);"/>
        </g>
        <g transform="matrix(1.26245,0,0,1.26245,348.838,461.045)">
            <circle cx="269.051" cy="253.792" r="24.932" style="fill:rgb(255,143,34);"/>
        </g>
        <g transform="matrix(1.26245,0,0,1.26245,269.337,461.045)">
            <circle cx="269.051" cy="253.792" r="24.932" style="fill:rgb(255,143,34);"/>
        </g>
        <g transform="matrix(1.26245,0,0,1.26245,189.836,461.045)">
            <circle cx="269.051" cy="253.792" r="24.932" style="fill:rgb(255,143,34);"/>
        </g>
        <g transform="matrix(1.26245,0,0,1.26245,110.335,461.045)">
            <circle cx="269.051" cy="253.792" r="24.932" style="fill:rgb(255,143,34);"/>
        </g>
        <g transform="matrix(1.26245,0,0,1.26245,-48.6667,461.045)">
            <circle cx="269.051" cy="253.792" r="24.932" style="fill:rgb(255,143,34);"/>
        </g>
        <g transform="matrix(1.26245,0,0,1.26245,30.8342,461.045)">
            <circle cx="269.051" cy="253.792" r="24.932" style="fill:rgb(255,143,34);"/>
        </g>
    </g>
    <g id="Right-circles" serif:id="Right circles">
        <g transform="matrix(7.7303e-17,-1.26245,1.26245,7.7303e-17,461.053,1028.17)">
            <circle cx="269.051" cy="253.792" r="24.932" style="fill:rgb(255,143,34);"/>
        </g>
        <g transform="matrix(7.7303e-17,-1.26245,1.26245,7.7303e-17,461.053,551.162)">
            <circle cx="269.051" cy="253.792" r="24.932" style="fill:rgb(255,143,34);"/>
        </g>
        <g transform="matrix(7.7303e-17,-1.26245,1.26245,7.7303e-17,461.053,630.663)">
            <circle cx="269.051" cy="253.792" r="24.932" style="fill:rgb(255,143,34);"/>
        </g>
        <g transform="matrix(7.7303e-17,-1.26245,1.26245,7.7303e-17,461.053,710.164)">
            <circle cx="269.051" cy="253.792" r="24.932" style="fill:rgb(255,143,34);"/>
        </g>
        <g transform="matrix(7.7303e-17,-1.26245,1.26245,7.7303e-17,461.053,789.665)">
            <circle cx="269.051" cy="253.792" r="24.932" style="fill:rgb(255,143,34);"/>
        </g>
        <g transform="matrix(7.7303e-17,-1.26245,1.26245,7.7303e-17,461.053,948.667)">
            <circle cx="269.051" cy="253.792" r="24.932" style="fill:rgb(255,143,34);"/>
        </g>
        <g transform="matrix(7.7303e-17,-1.26245,1.26245,7.7303e-17,461.053,869.166)">
            <circle cx="269.051" cy="253.792" r="24.932" style="fill:rgb(255,143,34);"/>
        </g>
    </g>
    <g id="Left-circles" serif:id="Left circles">
        <g transform="matrix(7.7303e-17,-1.26245,1.26245,7.7303e-17,-201.856,1028.17)">
            <circle cx="269.051" cy="253.792" r="24.932" style="fill:rgb(255,143,34);"/>
        </g>
        <g transform="matrix(7.7303e-17,-1.26245,1.26245,7.7303e-17,-201.856,551.162)">
            <circle cx="269.051" cy="253.792" r="24.932" style="fill:rgb(255,143,34);"/>
        </g>
        <g transform="matrix(7.7303e-17,-1.26245,1.26245,7.7303e-17,-201.856,630.663)">
            <circle cx="269.051" cy="253.792" r="24.932" style="fill:rgb(255,143,34);"/>
        </g>
        <g transform="matrix(7.7303e-17,-1.26245,1.26245,7.7303e-17,-201.856,710.164)">
            <circle cx="269.051" cy="253.792" r="24.932" style="fill:rgb(255,143,34);"/>
        </g>
        <g transform="matrix(7.7303e-17,-1.26245,1.26245,7.7303e-17,-201.856,789.665)">
            <circle cx="269.051" cy="253.792" r="24.932" style="fill:rgb(255,143,34);"/>
        </g>
        <g transform="matrix(7.7303e-17,-1.26245,1.26245,7.7303e-17,-201.856,948.667)">
            <circle cx="269.051" cy="253.792" r="24.932" style="fill:rgb(255,143,34);"/>
        </g>
        <g transform="matrix(7.7303e-17,-1.26245,1.26245,7.7303e-17,-201.856,869.166)">
            <circle cx="269.051" cy="253.792" r="24.932" style="fill:rgb(255,143,34);"/>
        </g>
    </g>
    <g transform="matrix(0.950005,0,0,0.950005,22.5265,22.4989)">
        <path d="M150.02,749.97C149.888,733.659 150.02,750.518 150.02,735.29C165.244,735.669 230.959,720.485 244.329,694.508C294.326,597.367 288.719,582.402 450,150.027L561.623,150.027C581.027,255.869 653.182,614.472 683.654,716.318C685.902,723.833 701.719,728.45 749.978,732.871L749.978,749.97L529.501,749.97L529.501,732.871C537.241,732.158 564.454,734.723 560.977,706.854C558.276,685.203 532.062,542.468 529.501,542.468C512.493,542.468 358.867,542.468 333.562,542.468C310.22,606.724 294.934,639.295 277.709,691.859C267.318,723.572 326.913,729.193 355.516,732.871C355.516,743.96 355.516,724.413 355.516,749.97L150.02,749.97ZM460.261,171.639L524.729,516.911L342.294,516.911L460.261,171.639Z" style="fill:rgb(147,13,242);"/>
    </g>
    <path d="M459.777,185.557L521.022,513.567L347.708,513.567L459.777,185.557Z" style="fill:white;"/>
</svg>
