<?xml version="1.0" encoding="UTF-8" standalone="no"?>
<!DOCTYPE svg PUBLIC "-//W3C//DTD SVG 1.1//EN" "http://www.w3.org/Graphics/SVG/1.1/DTD/svg11.dtd">
<svg width="100%" height="100%" viewBox="0 0 900 900" version="1.1" xmlns="http://www.w3.org/2000/svg" xmlns:xlink="http://www.w3.org/1999/xlink" xml:space="preserve" xmlns:serif="http://www.serif.com/" style="fill-rule:evenodd;clip-rule:evenodd;stroke-linejoin:round;stroke-miterlimit:2;">
    <g transform="matrix(1.26245,0,0,1.26245,441.789,-201.85)">
        <circle cx="269.051" cy="253.792" r="24.932" style="fill:rgb(34,255,190);"/>
    </g>
    <g transform="matrix(1.26245,0,0,1.26245,-221.121,-201.85)">
        <circle cx="269.051" cy="253.792" r="24.932" style="fill:rgb(34,255,190);"/>
    </g>
    <g transform="matrix(1.26245,0,0,1.26245,-221.121,461.045)">
        <circle cx="269.051" cy="253.792" r="24.932" style="fill:rgb(34,255,190);"/>
    </g>
    <g transform="matrix(1.26245,0,0,1.26245,441.789,461.045)">
        <circle cx="269.051" cy="253.792" r="24.932" style="fill:rgb(34,255,190);"/>
    </g>
    <g transform="matrix(1,0,0,1,44.5727,-1.13687e-13)">
        <path d="M352.875,165.028C442.208,165.442 517.857,165.597 517.857,278.908C517.857,357.844 494.796,372.592 453.128,377.251C495.546,384.928 662.322,394.513 662.322,566.314C662.322,719.999 598.01,734.974 351.824,734.974L165.047,734.974L165.047,721.028C203.679,718.965 259.844,700.124 261.039,662.266C261.04,662.248 261.037,662.23 261.039,662.211L261.039,237.789C261.037,237.77 261.04,237.752 261.039,237.734C259.844,199.876 203.679,181.035 165.047,178.972L165.047,165.026L352.875,165.028ZM343.24,388.775C334.307,388.775 292.219,388.731 285.319,388.775L285.319,662.266C285.319,714.685 326.924,721.028 360.268,721.028C455.65,721.028 589.871,727.945 589.871,569.791C589.871,456.831 517.609,388.775 343.24,388.775ZM351.824,178.972C308.218,178.972 285.319,185.315 285.319,237.734L285.319,374.814C311.491,374.814 339.665,374.702 344.204,374.702C439.01,374.702 470.437,341.458 470.437,283.272C470.437,217.898 442.989,178.972 351.824,178.972Z" style="fill:rgb(255,130,0);"/>
    </g>
    <g>
        <g transform="matrix(1.26252,0,0,1.26252,-134.064,-39.3851)">
            <path d="M651.527,100.165L676.458,150.027L626.596,150.027L651.527,100.165Z" style="fill:rgb(156,0,255);"/>
        </g>
        <g transform="matrix(1.26252,0,0,1.26252,-611.069,-39.3851)">
            <path d="M651.527,100.165L676.458,150.027L626.596,150.027L651.527,100.165Z" style="fill:rgb(156,0,255);"/>
        </g>
        <g transform="matrix(1.26252,0,0,1.26252,-515.668,-39.3851)">
            <path d="M651.527,100.165L676.458,150.027L626.596,150.027L651.527,100.165Z" style="fill:rgb(156,0,255);"/>
        </g>
        <g transform="matrix(1.26252,0,0,1.26252,-420.267,-39.3851)">
            <path d="M651.527,100.165L676.458,150.027L626.596,150.027L651.527,100.165Z" style="fill:rgb(156,0,255);"/>
        </g>
        <g transform="matrix(1.26252,0,0,1.26252,-324.866,-39.3851)">
            <path d="M651.527,100.165L676.458,150.027L626.596,150.027L651.527,100.165Z" style="fill:rgb(156,0,255);"/>
        </g>
        <g transform="matrix(1.26252,0,0,1.26252,-229.465,-39.3851)">
            <path d="M651.527,100.165L676.458,150.027L626.596,150.027L651.527,100.165Z" style="fill:rgb(156,0,255);"/>
        </g>
    </g>
    <g transform="matrix(1,0,0,-1,0.000865287,899.997)">
        <g transform="matrix(1.26252,0,0,1.26252,-134.064,-39.3851)">
            <path d="M651.527,100.165L676.458,150.027L626.596,150.027L651.527,100.165Z" style="fill:rgb(156,0,255);"/>
        </g>
        <g transform="matrix(1.26252,0,0,1.26252,-611.069,-39.3851)">
            <path d="M651.527,100.165L676.458,150.027L626.596,150.027L651.527,100.165Z" style="fill:rgb(156,0,255);"/>
        </g>
        <g transform="matrix(1.26252,0,0,1.26252,-515.668,-39.3851)">
            <path d="M651.527,100.165L676.458,150.027L626.596,150.027L651.527,100.165Z" style="fill:rgb(156,0,255);"/>
        </g>
        <g transform="matrix(1.26252,0,0,1.26252,-420.267,-39.3851)">
            <path d="M651.527,100.165L676.458,150.027L626.596,150.027L651.527,100.165Z" style="fill:rgb(156,0,255);"/>
        </g>
        <g transform="matrix(1.26252,0,0,1.26252,-324.866,-39.3851)">
            <path d="M651.527,100.165L676.458,150.027L626.596,150.027L651.527,100.165Z" style="fill:rgb(156,0,255);"/>
        </g>
        <g transform="matrix(1.26252,0,0,1.26252,-229.465,-39.3851)">
            <path d="M651.527,100.165L676.458,150.027L626.596,150.027L651.527,100.165Z" style="fill:rgb(156,0,255);"/>
        </g>
    </g>
    <g transform="matrix(6.12323e-17,-1,-1,-6.12323e-17,900.005,899.999)">
        <g transform="matrix(1.26252,0,0,1.26252,-134.064,-39.3851)">
            <path d="M651.527,100.165L676.458,150.027L626.596,150.027L651.527,100.165Z" style="fill:rgb(156,0,255);"/>
        </g>
        <g transform="matrix(1.26252,0,0,1.26252,-611.069,-39.3851)">
            <path d="M651.527,100.165L676.458,150.027L626.596,150.027L651.527,100.165Z" style="fill:rgb(156,0,255);"/>
        </g>
        <g transform="matrix(1.26252,0,0,1.26252,-515.668,-39.3851)">
            <path d="M651.527,100.165L676.458,150.027L626.596,150.027L651.527,100.165Z" style="fill:rgb(156,0,255);"/>
        </g>
        <g transform="matrix(1.26252,0,0,1.26252,-420.267,-39.3851)">
            <path d="M651.527,100.165L676.458,150.027L626.596,150.027L651.527,100.165Z" style="fill:rgb(156,0,255);"/>
        </g>
        <g transform="matrix(1.26252,0,0,1.26252,-324.866,-39.3851)">
            <path d="M651.527,100.165L676.458,150.027L626.596,150.027L651.527,100.165Z" style="fill:rgb(156,0,255);"/>
        </g>
        <g transform="matrix(1.26252,0,0,1.26252,-229.465,-39.3851)">
            <path d="M651.527,100.165L676.458,150.027L626.596,150.027L651.527,100.165Z" style="fill:rgb(156,0,255);"/>
        </g>
    </g>
    <g transform="matrix(-6.12323e-17,-1,1,-6.12323e-17,-0.00693328,899.999)">
        <g transform="matrix(1.26252,0,0,1.26252,-134.064,-39.3851)">
            <path d="M651.527,100.165L676.458,150.027L626.596,150.027L651.527,100.165Z" style="fill:rgb(156,0,255);"/>
        </g>
        <g transform="matrix(1.26252,0,0,1.26252,-611.069,-39.3851)">
            <path d="M651.527,100.165L676.458,150.027L626.596,150.027L651.527,100.165Z" style="fill:rgb(156,0,255);"/>
        </g>
        <g transform="matrix(1.26252,0,0,1.26252,-515.668,-39.3851)">
            <path d="M651.527,100.165L676.458,150.027L626.596,150.027L651.527,100.165Z" style="fill:rgb(156,0,255);"/>
        </g>
        <g transform="matrix(1.26252,0,0,1.26252,-420.267,-39.3851)">
            <path d="M651.527,100.165L676.458,150.027L626.596,150.027L651.527,100.165Z" style="fill:rgb(156,0,255);"/>
        </g>
        <g transform="matrix(1.26252,0,0,1.26252,-324.866,-39.3851)">
            <path d="M651.527,100.165L676.458,150.027L626.596,150.027L651.527,100.165Z" style="fill:rgb(156,0,255);"/>
        </g>
        <g transform="matrix(1.26252,0,0,1.26252,-229.465,-39.3851)">
            <path d="M651.527,100.165L676.458,150.027L626.596,150.027L651.527,100.165Z" style="fill:rgb(156,0,255);"/>
        </g>
    </g>
</svg>
