<?xml version="1.0" encoding="UTF-8" standalone="no"?>
<!DOCTYPE svg PUBLIC "-//W3C//DTD SVG 1.1//EN" "http://www.w3.org/Graphics/SVG/1.1/DTD/svg11.dtd">
<svg width="100%" height="100%" viewBox="0 0 900 900" version="1.1" xmlns="http://www.w3.org/2000/svg" xmlns:xlink="http://www.w3.org/1999/xlink" xml:space="preserve" xmlns:serif="http://www.serif.com/" style="fill-rule:evenodd;clip-rule:evenodd;stroke-linejoin:round;stroke-miterlimit:2;">
    <path d="M684.744,165.027L684.744,335.857C684.744,339.027 666.733,339.342 666.529,336.178C658.762,215.937 555.025,184.905 450,184.905C316.675,184.905 292.904,334.13 292.904,513.762C292.904,572.254 330.678,700.512 450,700.572C592.343,700.644 661.166,627.364 666.319,617.523C666.377,617.413 669.765,617.523 684.744,617.523C690.377,617.523 611.499,734.976 450,734.976C288.501,734.976 164.998,661.101 164.998,513.762C164.998,260.946 290.175,165.027 450,165.027C609.825,165.027 632.534,219.071 651.172,237.71C659.853,246.391 666.145,191.386 666.145,165.027C666.145,164.803 684.744,164.803 684.744,165.027Z" style="fill:rgb(1,123,0);"/>
    <g transform="matrix(1.07365,1.07365,-1.07365,1.07365,40.0536,-987.337)">
        <path d="M860.275,763.604L881.313,778.889L873.277,803.621L847.272,803.621L839.236,778.889L860.275,763.604Z" style="fill:rgb(255,218,182);"/>
    </g>
    <g transform="matrix(1.07365,1.07365,-1.07365,1.07365,703.112,-1650.38)">
        <path d="M860.275,763.604L881.313,778.889L873.277,803.621L847.272,803.621L839.236,778.889L860.275,763.604Z" style="fill:rgb(255,218,182);"/>
    </g>
    <g transform="matrix(-1.07365,1.07365,-1.07365,-1.07365,2550.39,703.105)">
        <path d="M860.275,763.604L881.313,778.889L873.277,803.621L847.272,803.621L839.236,778.889L860.275,763.604Z" style="fill:rgb(255,218,182);"/>
    </g>
    <g transform="matrix(1.51838,1.11022e-16,-1.11022e-16,1.51838,-856.221,-739.819)">
        <path d="M860.275,763.604L881.313,778.889L873.277,803.621L847.272,803.621L839.236,778.889L860.275,763.604Z" style="fill:rgb(182,186,255);"/>
    </g>
    <g transform="matrix(-1.07365,1.07365,-1.07365,-1.07365,1887.33,40.061)">
        <path d="M860.275,763.604L881.313,778.889L873.277,803.621L847.272,803.621L839.236,778.889L860.275,763.604Z" style="fill:rgb(255,218,182);"/>
    </g>
</svg>
