<?xml version="1.0" encoding="UTF-8" standalone="no"?>
<!DOCTYPE svg PUBLIC "-//W3C//DTD SVG 1.1//EN" "http://www.w3.org/Graphics/SVG/1.1/DTD/svg11.dtd">
<svg width="100%" height="100%" viewBox="0 0 900 900" version="1.1" xmlns="http://www.w3.org/2000/svg" xmlns:xlink="http://www.w3.org/1999/xlink" xml:space="preserve" xmlns:serif="http://www.serif.com/" style="fill-rule:evenodd;clip-rule:evenodd;stroke-linejoin:round;stroke-miterlimit:2;">
    <g id="Letter">
        <g id="Layer1">
            <path d="M164.998,164.795C167.681,164.795 466.299,164.859 479.697,164.859C623.331,164.859 685.035,267.105 685.035,450C685.035,667.049 585.453,734.976 479.697,734.976L164.998,734.976L164.998,716.78C164.998,716.78 234.932,716.683 234.932,696.153L234.932,201.909C234.932,183.091 164.998,181.35 164.998,180.18C164.998,175.85 164.966,164.795 164.998,164.795ZM305.974,207.116C305.974,188.145 330.432,180.193 349.404,180.193L480.171,180.193C582.395,180.193 626.309,276.426 626.309,448.566C626.309,652.852 555.437,716.784 480.171,716.784L342.747,716.784C321.116,716.784 305.974,707.533 305.974,691.524L305.974,207.116Z" style="fill:rgb(0,118,8);"/>
        </g>
        <g transform="matrix(0.800068,0,0,0.800068,269.201,29.9955)">
            <rect x="600.921" y="75.034" width="74.995" height="74.995" style="fill:rgb(255,0,228);"/>
        </g>
        <g transform="matrix(0.800068,0,0,0.800068,269.201,689.939)">
            <rect x="600.921" y="75.034" width="74.995" height="74.995" style="fill:rgb(255,0,228);"/>
        </g>
        <g transform="matrix(0.800068,0,0,0.800068,269.201,359.967)">
            <rect x="600.921" y="75.034" width="74.995" height="74.995" style="fill:rgb(255,0,228);"/>
        </g>
        <g transform="matrix(1,0,0,1,-693.367,0)">
            <circle cx="813.388" cy="120.028" r="30.001" style="fill:rgb(255,250,0);"/>
        </g>
        <g transform="matrix(1,0,0,1,-363.388,0)">
            <circle cx="813.388" cy="120.028" r="30.001" style="fill:rgb(255,250,0);"/>
        </g>
        <g transform="matrix(1,0,0,1,-693.367,659.944)">
            <circle cx="813.388" cy="120.028" r="30.001" style="fill:rgb(255,250,0);"/>
        </g>
        <g transform="matrix(1,0,0,1,-358.378,659.944)">
            <circle cx="813.388" cy="120.028" r="30.001" style="fill:rgb(255,250,0);"/>
        </g>
        <g transform="matrix(1,0,0,1,-693.367,329.972)">
            <circle cx="813.388" cy="120.028" r="30.001" style="fill:rgb(255,250,0);"/>
        </g>
        <g transform="matrix(0.634509,0,0,0.634509,389.985,173.924)">
            <path d="M147.744,394.422C139.678,388.582 129.974,385.437 120.015,385.437C93.92,385.437 72.734,406.624 72.734,432.719C72.734,458.814 93.92,480.001 120.015,480.001C135.178,480.001 149.421,472.729 158.313,460.447L120.015,432.719L147.744,394.422Z" style="fill:rgb(255,0,228);"/>
        </g>
    </g>
</svg>
